<?xml version="1.0" standalone="no"?>
<!DOCTYPE svg PUBLIC "-//W3C//DTD SVG 20010904//EN"
 "http://www.w3.org/TR/2001/REC-SVG-20010904/DTD/svg10.dtd">
<svg version="1.0" xmlns="http://www.w3.org/2000/svg"
 width="1080.000000pt" height="1080.000000pt" viewBox="0 0 1080.000000 1080.000000"
 preserveAspectRatio="xMidYMid meet">
<metadata>
Created by potrace 1.14, written by Peter Selinger 2001-2017
</metadata>
<g transform="translate(0.000000,1080.000000) scale(0.100000,-0.100000)"
fill="#000000" stroke="none">
<path d="M0 5400 l0 -5400 5400 0 5400 0 0 5400 0 5400 -5400 0 -5400 0 0
-5400z m5622 3820 c337 -33 507 -59 712 -111 660 -166 1247 -497 1739 -979
318 -311 557 -638 751 -1028 198 -396 309 -770 378 -1272 18 -130 18 -730 0
-860 -42 -303 -91 -524 -168 -763 -283 -866 -889 -1623 -1674 -2091 -471 -280
-930 -435 -1530 -518 -130 -18 -730 -18 -860 0 -502 69 -876 180 -1272 378
-390 194 -717 433 -1028 751 -482 492 -813 1079 -979 1739 -68 270 -121 679
-121 934 0 255 53 664 121 934 166 660 497 1247 979 1739 565 577 1277 955
2056 1091 126 22 184 29 439 55 117 12 339 13 457 1z"/>
<path d="M3370 7130 l0 -50 140 0 140 0 0 -1705 0 -1705 -140 0 -140 0 0 -50
0 -50 350 0 350 0 0 50 0 50 -145 0 -145 0 0 1615 c0 1314 2 1615 13 1615 9 0
159 -540 461 -1652 247 -909 451 -1659 454 -1666 3 -10 74 -12 325 -10 l322 3
385 1654 c212 910 390 1654 395 1655 7 1 11 -542 13 -1606 l2 -1608 -145 0
-145 0 0 -50 0 -50 785 0 785 0 0 50 0 50 -140 0 -140 0 0 1705 0 1705 140 0
140 0 0 50 0 50 -684 0 c-643 0 -685 -1 -690 -17 -3 -10 -25 -106 -50 -213
-171 -741 -558 -2396 -562 -2399 -2 -2 -6 -2 -8 0 -3 4 -664 2560 -674 2607
l-4 22 -694 0 -694 0 0 -50z"/>
</g>
</svg>
